<svg width="48" height="48" viewBox="0 0 48 48" fill="none" xmlns="http://www.w3.org/2000/svg">
<path opacity="0.2" d="M47.281 29.8062C44.0755 42.6634 31.0525 50.4874 18.1937 47.2819C5.34096 44.0765 -2.48379 31.0534 0.722462 18.1969C3.92646 5.3382 16.9487 -2.4873 29.8037 0.718197C42.6617 3.9237 50.4857 16.9482 47.2802 29.8062H47.281Z" fill="#F7931A"/>
<path fill-rule="evenodd" clip-rule="evenodd" d="M31.2283 21.2118C31.5519 19.0453 29.9024 17.8807 27.6469 17.1038L28.3785 14.1691L26.5917 13.7239L25.8794 16.5813C25.4103 16.4642 24.9279 16.3538 24.4486 16.2444L25.166 13.3683L23.3807 12.9231L22.6485 15.8567C22.2598 15.7682 21.8782 15.6807 21.5078 15.5886L21.5099 15.5795L19.0463 14.9643L18.5711 16.8723C18.5711 16.8723 19.8965 17.176 19.8685 17.1949C20.592 17.3755 20.7233 17.8542 20.7009 18.2338L19.8675 21.5771C19.9174 21.5898 19.982 21.6081 20.0532 21.6366L19.865 21.5898L18.6963 26.2732C18.6077 26.493 18.3834 26.8227 17.8776 26.6975C17.8954 26.7235 16.5792 26.3734 16.5792 26.3734L15.6924 28.4187L18.0175 28.9983C18.28 29.064 18.5394 29.1317 18.7958 29.1986L18.7961 29.1987C18.9621 29.242 19.1268 29.285 19.2905 29.3269L18.5513 32.2957L20.3356 32.7409L21.0682 29.8042C21.5552 29.9365 22.0283 30.0586 22.4913 30.1736L21.7617 33.0966L23.5481 33.5417L24.2874 30.5791C27.3335 31.1555 29.6246 30.923 30.5877 28.1684C31.3646 25.9501 30.5495 24.6705 28.9468 23.8356C30.114 23.5654 30.9932 22.7976 31.2278 21.2118H31.2283ZM27.1457 26.9351C26.6386 28.9711 23.451 28.1287 21.9939 27.7436L21.9938 27.7436C21.8634 27.7091 21.7468 27.6783 21.6472 27.6535L22.6282 23.7211C22.7499 23.7515 22.8986 23.7849 23.067 23.8226C24.5745 24.1609 27.6638 24.8542 27.1462 26.9351H27.1457ZM23.3705 21.9978C24.5863 22.3222 27.2366 23.0292 27.6983 21.1797C28.1703 19.2875 25.5932 18.7172 24.3346 18.4387C24.1931 18.4074 24.0682 18.3798 23.9663 18.3544L23.0769 21.921C23.1611 21.942 23.2598 21.9683 23.3705 21.9978Z" fill="#F7931A"/>
</svg>
