<svg width="48" height="48" viewBox="0 0 48 48" fill="none" xmlns="http://www.w3.org/2000/svg">
<path opacity="0.2" d="M47.8699 24.0004C47.8699 37.1855 37.1815 47.8741 23.9966 47.8741C10.8115 47.8741 0.123047 37.1855 0.123047 24.0004C0.123047 10.8155 10.8115 0.127045 23.9966 0.127045C37.1814 0.127045 47.8699 10.8155 47.8699 24.0004Z" fill="#505050"/>
<g opacity="0.8">
<path d="M23.9199 12.9231L23.7725 13.4243V27.9679L23.9199 28.1151L30.6709 24.1246L23.9199 12.9231Z" fill="white"/>
<path d="M23.9199 12.9231L17.1689 24.1246L23.9199 28.1151V21.0561V12.9231Z" fill="white"/>
<path d="M23.92 30.3115L23.8369 30.4128V35.5936L23.92 35.8363L30.6751 26.3231L23.92 30.3115Z" fill="white"/>
<path d="M23.9199 35.8363V30.3115L17.1689 26.3231L23.9199 35.8363Z" fill="white"/>
<path d="M23.9199 28.1151L30.6708 24.1247L23.9199 21.0562V28.1151Z" fill="white"/>
<path d="M17.1689 24.1246L23.9198 28.1151V21.0561L17.1689 24.1246Z" fill="white"/>
</g>
</svg>
