<svg width="24" height="24" viewBox="0 0 24 24" fill="none" xmlns="http://www.w3.org/2000/svg">
<path fill-rule="evenodd" clip-rule="evenodd" d="M12 0C8.74219 0 8.33438 0.0140625 7.05469 0.0703125C5.77969 0.126563 4.90313 0.332812 4.14375 0.628125C3.35774 0.935089 2.69171 1.33896 2.03119 2H2V2.03119C1.33896 2.69171 0.935089 3.3577 0.628125 4.13906C0.332812 4.90313 0.126563 5.775 0.0703125 7.05C0.0140625 8.33437 0 8.74219 0 12C0 15.2578 0.0140625 15.6656 0.0703125 16.9453C0.126563 18.2203 0.332812 19.0969 0.628125 19.8563C0.935089 20.6423 1.33896 21.3083 2 21.9688V22H2.0313C2.69178 22.6565 3.35774 23.0649 4.13906 23.3672C4.90313 23.6625 5.775 23.8687 7.05 23.925C8.32969 23.9812 8.7375 23.9953 11.9953 23.9953C15.2531 23.9953 15.6609 23.9812 16.9406 23.925C18.2156 23.8687 19.0922 23.6625 19.8516 23.3672C20.6329 23.0649 21.2988 22.6565 21.9593 22H22V21.9593C22.651 21.3019 23.057 20.6385 23.3578 19.8609C23.6531 19.0969 23.8594 18.225 23.9156 16.95C23.9719 15.6703 23.9859 15.2625 23.9859 12.0047C23.9859 8.74688 23.9719 8.33906 23.9156 7.05938C23.8594 5.78438 23.6531 4.90781 23.3578 4.14844C23.0648 3.35777 22.661 2.6917 22 2.03119V2H21.9687C21.3082 1.34353 20.6423 0.935109 19.8609 0.632812C19.0969 0.3375 18.225 0.13125 16.95 0.075C15.6656 0.0140625 15.2578 0 12 0ZM19.8469 5.59239C19.8469 6.38926 19.2 7.03145 18.4078 7.03145C17.6109 7.03145 16.9688 6.38457 16.9688 5.59239C16.9688 4.79551 17.6156 4.15332 18.4078 4.15332C19.2 4.15332 19.8469 4.8002 19.8469 5.59239ZM12 5.83594C8.59688 5.83594 5.83594 8.59688 5.83594 12C5.83594 15.4031 8.59688 18.1641 12 18.1641C15.4031 18.1641 18.1641 15.4031 18.1641 12C18.1641 8.59688 15.4031 5.83594 12 5.83594ZM12 15.9984C9.79219 15.9984 8.00156 14.2078 8.00156 12C8.00156 9.79219 9.79219 8.00156 12 8.00156C14.2078 8.00156 15.9984 9.79219 15.9984 12C15.9984 14.2078 14.2078 15.9984 12 15.9984Z" fill="#26252A"/>
</svg>
