<svg width="24" height="21" viewBox="0 0 24 21" fill="none" xmlns="http://www.w3.org/2000/svg">
<path fill-rule="evenodd" clip-rule="evenodd" d="M1.64987 9.12162C8.09231 6.31475 12.3883 4.46429 14.5378 3.57025C20.675 1.01755 21.9503 0.574125 22.7815 0.559482C22.9643 0.556262 23.3731 0.601569 23.6379 0.816418C23.8614 0.997832 23.9229 1.2429 23.9524 1.4149C23.9818 1.5869 24.0185 1.97872 23.9893 2.28488C23.6568 5.77932 22.2177 14.2594 21.4856 18.1732C21.1758 19.8293 20.5658 20.3846 19.9753 20.4389C18.6919 20.557 17.7174 19.5908 16.4744 18.776C14.5294 17.501 13.4305 16.7073 11.5425 15.4632C9.36064 14.0253 10.7751 13.2351 12.0185 11.9436C12.344 11.6056 17.9985 6.46237 18.1079 5.9958C18.1216 5.93745 18.1343 5.71994 18.0051 5.60508C17.8759 5.49023 17.6851 5.52951 17.5475 5.56074C17.3524 5.60502 14.2452 7.65878 8.22584 11.722C7.34386 12.3276 6.545 12.6227 5.82924 12.6073C5.04018 12.5902 3.52233 12.1611 2.39397 11.7943C1.00999 11.3445 -0.0899676 11.1066 0.00581423 10.3426C0.0557033 9.94462 0.603723 9.53763 1.64987 9.12162Z" fill="#26252A"/>
</svg>
