<svg width="48" height="48" viewBox="0 0 48 48" fill="none" xmlns="http://www.w3.org/2000/svg">
<rect width="48" height="48" rx="24" fill="#26252A"/>
<rect width="48" height="48" rx="24" fill="#297C74"/>
<path d="M14.0665 27.6995H22.0634C24.0797 27.6995 25.7142 29.334 25.7142 31.3503V31.3503C25.7142 33.3666 24.0797 35.0011 22.0634 35.0011H16.5004C14.5801 35.0011 13.0234 33.4444 13.0234 31.5241V17.396C13.0234 15.5975 14.4814 14.1395 16.2799 14.1395V14.1395C19.7614 14.1395 21.5049 18.3488 19.0432 20.8106L14.0665 25.7872" stroke="white" stroke-width="3.12923"/>
<path d="M36.837 22.3722H29.7094C27.6931 22.3722 26.0586 20.7377 26.0586 18.7215V18.7215C26.0586 16.7052 27.6931 15.0707 29.7094 15.0707H36.837" stroke="white" stroke-width="3.12923" stroke-linejoin="bevel"/>
</svg>
